<?xml version="1.0" encoding="UTF-8" standalone="no"?>
<!-- Created with Inkscape (http://www.inkscape.org/) -->

<svg
   xmlns:dc="http://purl.org/dc/elements/1.1/"
   xmlns:cc="http://creativecommons.org/ns#"
   xmlns:rdf="http://www.w3.org/1999/02/22-rdf-syntax-ns#"
   xmlns:svg="http://www.w3.org/2000/svg"
   xmlns="http://www.w3.org/2000/svg"
   xmlns:sodipodi="http://sodipodi.sourceforge.net/DTD/sodipodi-0.dtd"
   xmlns:inkscape="http://www.inkscape.org/namespaces/inkscape"
   width="210mm"
   height="297mm"
   viewBox="0 0 210 297"
   version="1.1"
   id="svg8"
   inkscape:version="0.92.3 (unknown)"
   sodipodi:docname="ltop.svg">
  <defs
     id="defs2" />
  <sodipodi:namedview
     id="base"
     pagecolor="#ffffff"
     bordercolor="#666666"
     borderopacity="1.0"
     inkscape:pageopacity="0.0"
     inkscape:pageshadow="2"
     inkscape:zoom="0.8293582"
     inkscape:cx="-52.427123"
     inkscape:cy="648.22433"
     inkscape:document-units="mm"
     inkscape:current-layer="layer1"
     showgrid="false" />
  <metadata
     id="metadata5">
    <rdf:RDF>
      <cc:Work
         rdf:about="">
        <dc:format>image/svg+xml</dc:format>
        <dc:type
           rdf:resource="http://purl.org/dc/dcmitype/StillImage" />
        <dc:title />
      </cc:Work>
    </rdf:RDF>
  </metadata>
  <g
     inkscape:groupmode="layer"
     id="layer3"
     inkscape:label="Layer 4"
     style="display:none">
    <path
       inkscape:connector-curvature="0"
       style="opacity:1;vector-effect:none;fill:none;fill-opacity:0.15294118;fill-rule:nonzero;stroke:#000000;stroke-width:0.11999999;stroke-linecap:butt;stroke-linejoin:miter;stroke-miterlimit:4;stroke-dasharray:none;stroke-dashoffset:0;stroke-opacity:1"
       d="m 104.99979,129.93987 a 18.559999,18.559999 0 0 0 -18.559592,18.56011 18.559999,18.559999 0 0 0 18.559592,18.5601 18.559999,18.559999 0 0 0 18.56011,-18.5601 18.559999,18.559999 0 0 0 -18.56011,-18.56011 z m 0,2.56005 a 16,16 0 0 1 16.00006,16.00006 16,16 0 0 1 -16.00006,16.00005 16,16 0 0 1 -15.999539,-16.00005 16,16 0 0 1 15.999539,-16.00006 z"
       id="path817-3-7" />
  </g>
  <g
     inkscape:groupmode="layer"
     id="layer2"
     inkscape:label="Layer 3"
     style="display:none">
    <path
       inkscape:connector-curvature="0"
       style="opacity:1;vector-effect:none;fill:none;fill-opacity:0.15294118;fill-rule:nonzero;stroke:#000000;stroke-width:0.12;stroke-linecap:butt;stroke-linejoin:miter;stroke-miterlimit:4;stroke-dasharray:none;stroke-dashoffset:0;stroke-opacity:1"
       d="m 104.99979,100.11999 a 48.380002,48.380002 0 0 0 -48.379991,48.37999 48.380002,48.380002 0 0 0 48.379991,48.37999 48.380002,48.380002 0 0 0 48.37999,-48.37999 48.380002,48.380002 0 0 0 -48.37999,-48.37999 z m 0,2.56005 a 45.819999,45.819999 0 0 1 45.82046,45.81994 45.819999,45.819999 0 0 1 -45.82046,45.81994 45.819999,45.819999 0 0 1 -45.819938,-45.81994 45.819999,45.819999 0 0 1 45.819938,-45.81994 z"
       id="path817-3-6" />
  </g>
  <g
     inkscape:groupmode="layer"
     id="layer5"
     inkscape:label="Layer 2b"
     style="display:none">
    <path
       style="display:inline;opacity:1;vector-effect:none;fill:none;fill-opacity:1;fill-rule:nonzero;stroke:#000000;stroke-width:0.45354331;stroke-linecap:butt;stroke-linejoin:miter;stroke-miterlimit:4;stroke-dasharray:none;stroke-dashoffset:0;stroke-opacity:1"
       d="M 396.84961,372.2832 A 188.97638,188.97638 0 0 0 207.87305,561.25977 188.97638,188.97638 0 0 0 396.84961,750.23633 188.97638,188.97638 0 0 0 585.82617,561.25977 188.97638,188.97638 0 0 0 396.84961,372.2832 Z m 18.86914,139.57032 a 3.7799055,3.7799055 0 0 1 1.46875,0.30859 c 13.01949,5.39282 23.36695,15.74028 28.75977,28.75977 a 3.7799055,3.7799055 0 1 1 -6.98243,2.89453 c -4.62678,-11.17002 -13.4999,-20.04314 -24.66992,-24.66993 a 3.7799055,3.7799055 0 0 1 -2.38476,-3.42578 3.7799055,3.7799055 0 0 1 3.80859,-3.86718 z m -37.84961,0.004 a 3.7799055,3.7799055 0 0 1 1.53711,7.28906 c -11.17,4.62679 -20.04316,13.49991 -24.66992,24.66993 a 3.7799055,3.7799055 0 0 1 -7.29297,-1.42383 3.7799055,3.7799055 0 0 1 0.31055,-1.4707 c 5.39285,-13.01949 15.74027,-23.36695 28.75976,-28.75977 a 3.7799055,3.7799055 0 0 1 1.35547,-0.30469 z m -1.08008,13.33399 a 3.7799055,3.7799055 0 0 1 1.91797,7.02734 c -4.41158,2.75664 -8.13983,6.48494 -10.89648,10.89648 a 3.7799055,3.7799055 0 0 1 -7.01367,-1.85351 3.7799055,3.7799055 0 0 1 0.60546,-2.1543 c 3.36508,-5.38522 7.9097,-9.92986 13.29493,-13.29492 a 3.7799055,3.7799055 0 0 1 2.09179,-0.62109 z m 40.06446,0.0176 a 3.7799055,3.7799055 0 0 1 2.15039,0.60352 c 5.38522,3.36506 9.92985,7.9097 13.29492,13.29492 a 3.7799055,3.7799055 0 1 1 -6.40821,4.00781 c -2.75663,-4.41154 -6.48299,-8.13984 -10.89453,-10.89648 a 3.7799055,3.7799055 0 0 1 -1.8164,-3.01758 3.7799055,3.7799055 0 0 1 3.67383,-3.99219 z m -20.00391,1.92188 a 7.6724409,7.6724409 0 0 1 7.67383,7.67187 7.6724409,7.6724409 0 0 1 -7.67383,7.67188 7.6724409,7.6724409 0 0 1 -7.67188,-7.67188 7.6724409,7.6724409 0 0 1 7.67188,-7.67187 z m -26.45508,20.59766 a 13.530708,13.530708 0 0 1 13.5293,13.53125 13.530708,13.530708 0 0 1 -13.5293,13.53125 13.530708,13.530708 0 0 1 -13.53125,-13.53125 13.530708,13.530708 0 0 1 13.53125,-13.53125 z m 52.91211,0 a 13.530708,13.530708 0 0 1 13.53125,13.53125 13.530708,13.530708 0 0 1 -13.53125,13.53125 13.530708,13.530708 0 0 1 -13.5293,-13.53125 13.530708,13.530708 0 0 1 13.5293,-13.53125 z m 19.08594,28.59375 a 3.7799055,3.7799055 0 0 1 3.55469,5.27539 c -5.39282,13.01949 -15.74028,23.36694 -28.75977,28.75976 a 3.7799055,3.7799055 0 0 1 -5.27734,-3.44726 3.7799055,3.7799055 0 0 1 2.38476,-3.53711 c 11.17002,-4.62679 20.04314,-13.49991 24.66992,-24.66993 a 3.7799055,3.7799055 0 0 1 3.42774,-2.38085 z m -91.20313,0.008 a 3.7799055,3.7799055 0 0 1 3.54883,2.37304 c 4.62676,11.17002 13.49997,20.04314 24.66992,24.66993 a 3.7802026,3.7802026 0 1 1 -2.89453,6.98437 c -13.01949,-5.39282 -23.36692,-15.74027 -28.75976,-28.75976 a 3.7799055,3.7799055 0 0 1 -0.30274,-1.35938 3.7799055,3.7799055 0 0 1 3.73828,-3.9082 z m 77.76758,1.23242 a 3.7799055,3.7799055 0 0 1 3.3418,5.84961 c -3.36507,5.38522 -7.9097,9.92986 -13.29492,13.29492 a 3.7799055,3.7799055 0 0 1 -5.83203,-3.27734 3.7799055,3.7799055 0 0 1 1.82421,-3.12891 c 4.41154,-2.75663 8.1379,-6.48494 10.89453,-10.89648 a 3.7799055,3.7799055 0 0 1 3.06641,-1.8418 z m -64.28125,0.0215 a 3.7799055,3.7799055 0 0 1 3.13477,1.82032 c 2.75665,4.41154 6.48496,8.13985 10.89648,10.89648 a 3.7799055,3.7799055 0 1 1 -4.00976,6.40625 c -5.38523,-3.36506 -9.92985,-7.9097 -13.29493,-13.29492 a 3.7799055,3.7799055 0 0 1 -0.60546,-2.03711 h 0.002 a 3.7799055,3.7799055 0 0 1 3.87695,-3.79102 z m 32.17383,2.46094 a 7.6724409,7.6724409 0 0 1 7.67383,7.67188 7.6724409,7.6724409 0 0 1 -7.67383,7.67187 7.6724409,7.6724409 0 0 1 -7.67188,-7.67187 7.6724409,7.6724409 0 0 1 7.67188,-7.67188 z"
       transform="scale(0.26458333)"
       id="path817"
       inkscape:connector-curvature="0" />
  </g>
  <g
     inkscape:groupmode="layer"
     id="layer4"
     inkscape:label="Layer 2"
     style="display:none">
    <path
       inkscape:connector-curvature="0"
       d=""
       style="opacity:1;vector-effect:none;fill:none;fill-opacity:0.15294118;fill-rule:nonzero;stroke:#ff0000;stroke-width:0.12;stroke-linecap:butt;stroke-linejoin:miter;stroke-miterlimit:4;stroke-dasharray:none;stroke-dashoffset:0;stroke-opacity:1"
       id="path817-3"
       r="16"
       cy="148.5"
       cx="105" />
    <g
       id="g1573">
      <circle
         r="3.5799999"
         cy="148.5"
         cx="98"
         id="path817-3-5-92"
         style="opacity:1;vector-effect:none;fill:none;fill-opacity:0.15294118;fill-rule:nonzero;stroke:#000000;stroke-width:0.12;stroke-linecap:butt;stroke-linejoin:miter;stroke-miterlimit:4;stroke-dasharray:none;stroke-dashoffset:0;stroke-opacity:1" />
      <circle
         r="3.5799999"
         cy="148.5"
         cx="112"
         id="path817-3-5-92-3"
         style="opacity:1;vector-effect:none;fill:none;fill-opacity:0.15294118;fill-rule:nonzero;stroke:#000000;stroke-width:0.12;stroke-linecap:butt;stroke-linejoin:miter;stroke-miterlimit:4;stroke-dasharray:none;stroke-dashoffset:0;stroke-opacity:1" />
      <circle
         r="2.03"
         cy="141.49998"
         cx="105"
         id="path817-3-5-1-75"
         style="opacity:1;vector-effect:none;fill:none;fill-opacity:0.15294118;fill-rule:nonzero;stroke:#000000;stroke-width:0.12;stroke-linecap:butt;stroke-linejoin:miter;stroke-miterlimit:4;stroke-dasharray:none;stroke-dashoffset:0;stroke-opacity:1" />
      <circle
         r="2.03"
         cy="155.49998"
         cx="105"
         id="path817-3-5-1-75-9"
         style="opacity:1;vector-effect:none;fill:none;fill-opacity:0.15294118;fill-rule:nonzero;stroke:#000000;stroke-width:0.12;stroke-linecap:butt;stroke-linejoin:miter;stroke-miterlimit:4;stroke-dasharray:none;stroke-dashoffset:0;stroke-opacity:1" />
    </g>
    <g
       id="g1512"
       style="stroke-width:1.79999995;stroke-miterlimit:4;stroke-dasharray:none">
      <path
         sodipodi:open="true"
         d="m 157.03136,-99.669012 a 10.059999,10.059999 0 0 1 -3.20037,3.200376"
         sodipodi:end="1.012291"
         sodipodi:start="0.55850536"
         sodipodi:ry="10.059999"
         sodipodi:rx="10.059999"
         sodipodi:cy="-105"
         sodipodi:cx="148.5"
         sodipodi:type="arc"
         transform="rotate(90)"
         id="path817-3-5-1-0-6-2-7"
         style="opacity:1;vector-effect:none;fill:none;fill-opacity:0.15294118;fill-rule:nonzero;stroke:#000000;stroke-width:1.79999995;stroke-linecap:round;stroke-linejoin:miter;stroke-miterlimit:4;stroke-dasharray:none;stroke-dashoffset:0;stroke-opacity:1" />
      <path
         sodipodi:open="true"
         d="m -136.43413,109.99785 a 13.06,13.06 0 0 1 -7.06802,7.06802"
         sodipodi:end="1.1780972"
         sodipodi:start="0.39269908"
         sodipodi:ry="13.06"
         sodipodi:rx="13.06"
         sodipodi:cy="105"
         sodipodi:cx="-148.5"
         sodipodi:type="arc"
         transform="rotate(-90)"
         id="path817-3-5-1-0-6"
         style="opacity:1;vector-effect:none;fill:none;fill-opacity:0.15294118;fill-rule:nonzero;stroke:#ff0000;stroke-width:1.79999995;stroke-linecap:round;stroke-linejoin:miter;stroke-miterlimit:4;stroke-dasharray:none;stroke-dashoffset:0;stroke-opacity:1" />
      <path
         sodipodi:open="true"
         d="m 113.53136,153.83099 a 10.059999,10.059999 0 0 1 -3.20037,3.20037"
         sodipodi:end="1.012291"
         sodipodi:start="0.55850536"
         sodipodi:ry="10.059999"
         sodipodi:rx="10.059999"
         sodipodi:cy="148.5"
         sodipodi:cx="105"
         sodipodi:type="arc"
         id="path817-3-5-1-0-6-2"
         style="opacity:1;vector-effect:none;fill:none;fill-opacity:0.15294118;fill-rule:nonzero;stroke:#ff0000;stroke-width:1.79999995;stroke-linecap:round;stroke-linejoin:miter;stroke-miterlimit:4;stroke-dasharray:none;stroke-dashoffset:0;stroke-opacity:1" />
      <path
         sodipodi:open="true"
         d="m -92.934132,-143.50215 a 13.060001,13.060001 0 0 1 -7.068018,7.06802"
         sodipodi:end="1.1780972"
         sodipodi:start="0.39269908"
         sodipodi:ry="13.060001"
         sodipodi:rx="13.060001"
         sodipodi:cy="-148.5"
         sodipodi:cx="-105"
         sodipodi:type="arc"
         transform="scale(-1)"
         id="path817-3-5-1-0-6-6"
         style="opacity:1;vector-effect:none;fill:none;fill-opacity:0.15294118;fill-rule:nonzero;stroke:#ff0000;stroke-width:1.79999995;stroke-linecap:round;stroke-linejoin:miter;stroke-miterlimit:4;stroke-dasharray:none;stroke-dashoffset:0;stroke-opacity:1" />
      <path
         sodipodi:open="true"
         d="m 160.56587,-100.00215 a 13.060001,13.060001 0 0 1 -7.06802,7.068018"
         sodipodi:end="1.1780972"
         sodipodi:start="0.39269908"
         sodipodi:ry="13.060001"
         sodipodi:rx="13.060001"
         sodipodi:cy="-105"
         sodipodi:cx="148.5"
         sodipodi:type="arc"
         transform="rotate(90)"
         id="path817-3-5-1-0-6-1"
         style="opacity:1;vector-effect:none;fill:none;fill-opacity:0.15294118;fill-rule:nonzero;stroke:#ff0000;stroke-width:1.79999995;stroke-linecap:round;stroke-linejoin:miter;stroke-miterlimit:4;stroke-dasharray:none;stroke-dashoffset:0;stroke-opacity:1" />
      <path
         sodipodi:open="true"
         d="m 117.06587,153.49785 a 13.060001,13.060001 0 0 1 -7.06802,7.06802"
         sodipodi:end="1.1780972"
         sodipodi:start="0.39269908"
         sodipodi:ry="13.060001"
         sodipodi:rx="13.060001"
         sodipodi:cy="148.5"
         sodipodi:cx="105"
         sodipodi:type="arc"
         id="path817-3-5-1-0-6-8"
         style="opacity:1;vector-effect:none;fill:none;fill-opacity:0.15294118;fill-rule:nonzero;stroke:#ff0000;stroke-width:1.79999995;stroke-linecap:round;stroke-linejoin:miter;stroke-miterlimit:4;stroke-dasharray:none;stroke-dashoffset:0;stroke-opacity:1" />
      <path
         sodipodi:open="true"
         d="m -96.468637,-143.16901 a 10.059999,10.059999 0 0 1 -3.200376,3.20037"
         sodipodi:end="1.012291"
         sodipodi:start="0.55850536"
         sodipodi:ry="10.059999"
         sodipodi:rx="10.059999"
         sodipodi:cy="-148.5"
         sodipodi:cx="-105"
         sodipodi:type="arc"
         transform="scale(-1)"
         id="path817-3-5-1-0-6-2-7-2"
         style="opacity:1;vector-effect:none;fill:none;fill-opacity:0.15294118;fill-rule:nonzero;stroke:#000000;stroke-width:1.79999995;stroke-linecap:round;stroke-linejoin:miter;stroke-miterlimit:4;stroke-dasharray:none;stroke-dashoffset:0;stroke-opacity:1" />
      <path
         sodipodi:open="true"
         d="m -139.96864,110.33099 a 10.059999,10.059999 0 0 1 -3.20037,3.20037"
         sodipodi:end="1.012291"
         sodipodi:start="0.55850536"
         sodipodi:ry="10.059999"
         sodipodi:rx="10.059999"
         sodipodi:cy="105"
         sodipodi:cx="-148.5"
         sodipodi:type="arc"
         transform="rotate(-90)"
         id="path817-3-5-1-0-6-2-7-28"
         style="opacity:1;vector-effect:none;fill:none;fill-opacity:0.15294118;fill-rule:nonzero;stroke:#000000;stroke-width:1.79999995;stroke-linecap:round;stroke-linejoin:miter;stroke-miterlimit:4;stroke-dasharray:none;stroke-dashoffset:0;stroke-opacity:1" />
    </g>
  </g>
  <g
     inkscape:label="Layer 1"
     inkscape:groupmode="layer"
     id="layer1"
     style="display:inline">
    <path
       style="display:inline;opacity:1;vector-effect:none;fill:none;fill-opacity:1;fill-rule:nonzero;stroke:#000000;stroke-width:0.12;stroke-linecap:butt;stroke-linejoin:miter;stroke-miterlimit:4;stroke-dasharray:none;stroke-dashoffset:0;stroke-opacity:1"
       d="m 104.99979,98.499929 c -27.614275,-2.4e-5 -50.000073,22.385781 -50.000045,50.000051 -2.7e-5,27.61427 22.385771,50.00007 50.000045,50.00005 27.61428,3e-5 50.00008,-22.38577 50.00005,-50.00005 3e-5,-27.61428 -22.38577,-50.000078 -50.00005,-50.000051 z"
       id="path817-36"
       inkscape:connector-curvature="0"
       sodipodi:nodetypes="ccccc" />
  </g>
</svg>
