<?xml version="1.0" encoding="UTF-8" standalone="no"?>
<!-- Created with Inkscape (http://www.inkscape.org/) -->

<svg
   xmlns:dc="http://purl.org/dc/elements/1.1/"
   xmlns:cc="http://creativecommons.org/ns#"
   xmlns:rdf="http://www.w3.org/1999/02/22-rdf-syntax-ns#"
   xmlns:svg="http://www.w3.org/2000/svg"
   xmlns="http://www.w3.org/2000/svg"
   xmlns:sodipodi="http://sodipodi.sourceforge.net/DTD/sodipodi-0.dtd"
   xmlns:inkscape="http://www.inkscape.org/namespaces/inkscape"
   width="210mm"
   height="297mm"
   viewBox="0 0 210 297"
   version="1.1"
   id="svg8"
   inkscape:version="0.92.3 (2405546, 2018-03-11)"
   sodipodi:docname="ltop.svg">
  <defs
     id="defs2" />
  <sodipodi:namedview
     id="base"
     pagecolor="#ffffff"
     bordercolor="#666666"
     borderopacity="1.0"
     inkscape:pageopacity="0.0"
     inkscape:pageshadow="2"
     inkscape:zoom="1.1728896"
     inkscape:cx="317.04895"
     inkscape:cy="498.05353"
     inkscape:document-units="mm"
     inkscape:current-layer="layer2"
     showgrid="false"
     inkscape:window-width="1910"
     inkscape:window-height="1521"
     inkscape:window-x="960"
     inkscape:window-y="0"
     inkscape:window-maximized="0" />
  <metadata
     id="metadata5">
    <rdf:RDF>
      <cc:Work
         rdf:about="">
        <dc:format>image/svg+xml</dc:format>
        <dc:type
           rdf:resource="http://purl.org/dc/dcmitype/StillImage" />
        <dc:title />
      </cc:Work>
    </rdf:RDF>
  </metadata>
  <g
     inkscape:groupmode="layer"
     id="layer3"
     inkscape:label="Layer 4"
     style="display:inline">
    <path
       inkscape:connector-curvature="0"
       style="opacity:1;vector-effect:none;fill:none;fill-opacity:0.15294118;fill-rule:nonzero;stroke:#000000;stroke-width:0.11999998;stroke-linecap:butt;stroke-linejoin:miter;stroke-miterlimit:4;stroke-dasharray:none;stroke-dashoffset:0;stroke-opacity:1"
       d="m 104.99953,129.55972 a 18.94015,18.94015 0 0 0 -18.939735,18.94026 18.94015,18.94015 0 0 0 18.939735,18.94026 18.94015,18.94015 0 0 0 18.94026,-18.94026 18.94015,18.94015 0 0 0 -18.94026,-18.94026 z m 0,2.61248 a 16.327717,16.327717 0 0 1 16.32778,16.32778 16.327717,16.327717 0 0 1 -16.32778,16.32777 16.327717,16.327717 0 0 1 -16.327246,-16.32777 16.327717,16.327717 0 0 1 16.327246,-16.32778 z"
       id="path817-3-7" />
  </g>
  <g
     inkscape:groupmode="layer"
     id="layer2"
     inkscape:label="Layer 3"
     style="display:inline">
    <path
       style="display:inline;opacity:1;vector-effect:none;fill:none;fill-opacity:1;fill-rule:nonzero;stroke:#000000;stroke-width:0.11999999;stroke-linecap:butt;stroke-linejoin:miter;stroke-miterlimit:4;stroke-dasharray:none;stroke-dashoffset:0;stroke-opacity:1"
       d="m 104.99979,101.24997 c -26.095463,-2e-5 -47.250022,21.15455 -47.249995,47.25001 -2.6e-5,26.09546 21.154533,47.25002 47.249995,47.25 26.09547,3e-5 47.25002,-21.15453 47.25,-47.25 2e-5,-26.09547 -21.15453,-47.25003 -47.25,-47.25001 z"
       id="path817-36-8"
       inkscape:connector-curvature="0"
       sodipodi:nodetypes="ccccc" />
    <path
       style="display:inline;opacity:1;vector-effect:none;fill:none;fill-opacity:1;fill-rule:nonzero;stroke:#000000;stroke-width:0.11999999;stroke-linecap:butt;stroke-linejoin:miter;stroke-miterlimit:4;stroke-dasharray:none;stroke-dashoffset:0;stroke-opacity:1"
       d="m 104.99979,103.89144 c -24.636619,-2e-5 -44.608551,19.97192 -44.608526,44.60855 -2.4e-5,24.63662 19.971908,44.60855 44.608526,44.60853 24.63663,3e-5 44.60856,-19.9719 44.60853,-44.60853 3e-5,-24.63663 -19.9719,-44.60857 -44.60853,-44.60855 z"
       id="path817-36-8-9"
       inkscape:connector-curvature="0"
       sodipodi:nodetypes="ccccc" />
  </g>
  <g
     inkscape:groupmode="layer"
     id="layer5"
     inkscape:label="Layer 2b"
     style="display:none">
    <path
       style="display:inline;opacity:1;vector-effect:none;fill:none;fill-opacity:1;fill-rule:nonzero;stroke:#000000;stroke-width:0.12;stroke-linecap:butt;stroke-linejoin:miter;stroke-miterlimit:4;stroke-dasharray:none;stroke-dashoffset:0;stroke-opacity:1"
       d="m 104.99979,98.499929 c -27.614275,-2.4e-5 -50.000073,22.385781 -50.000045,50.000051 -2.7e-5,27.61427 22.385771,50.00007 50.000045,50.00005 27.61428,3e-5 50.00007,-22.38577 50.00005,-50.00005 2e-5,-27.61428 -22.38577,-50.000078 -50.00005,-50.000051 z"
       id="path817-36-5"
       inkscape:connector-curvature="0"
       sodipodi:nodetypes="ccccc" />
    <path
       style="color:#000000;font-style:normal;font-variant:normal;font-weight:normal;font-stretch:normal;font-size:medium;line-height:normal;font-family:sans-serif;font-variant-ligatures:normal;font-variant-position:normal;font-variant-caps:normal;font-variant-numeric:normal;font-variant-alternates:normal;font-feature-settings:normal;text-indent:0;text-align:start;text-decoration:none;text-decoration-line:none;text-decoration-style:solid;text-decoration-color:#000000;letter-spacing:normal;word-spacing:normal;text-transform:none;writing-mode:lr-tb;direction:ltr;text-orientation:mixed;dominant-baseline:auto;baseline-shift:baseline;text-anchor:start;white-space:normal;shape-padding:0;clip-rule:nonzero;display:inline;overflow:visible;visibility:visible;opacity:1;isolation:auto;mix-blend-mode:normal;color-interpolation:sRGB;color-interpolation-filters:linearRGB;solid-color:#000000;solid-opacity:1;vector-effect:none;fill:none;fill-opacity:1;fill-rule:nonzero;stroke:#000000;stroke-width:0.12;stroke-linecap:round;stroke-linejoin:miter;stroke-miterlimit:4;stroke-dasharray:none;stroke-dashoffset:0;stroke-opacity:1;color-rendering:auto;image-rendering:auto;shape-rendering:auto;text-rendering:auto;enable-background:accumulate"
       d="m 92.029297,153.51953 a 0.90008998,0.90008998 0 0 0 0.07422,0.32227 c 1.416723,3.42027 4.134416,6.13796 7.554687,7.55468 a 0.90008998,0.90008998 0 1 0 0.687496,-1.6621 c -2.979856,-1.2343 -5.345776,-3.60022 -6.580074,-6.58008 a 0.90008998,0.90008998 0 0 0 -1.736329,0.36523 z m 0,-10.01172 a 0.90008998,0.90008998 0 0 0 1.736328,0.33789 c 1.234298,-2.97986 3.600218,-5.34578 6.580075,-6.58008 a 0.90008998,0.90008998 0 1 0 -0.687497,-1.6621 c -3.420271,1.41672 -6.137964,4.13441 -7.554687,7.55468 a 0.90008998,0.90008998 0 0 0 -0.07422,0.34961 z m 3.722656,-0.6289 a 0.90008998,0.90008998 0 0 0 1.654297,0.49804 c 0.657622,-0.97496 1.495738,-1.81308 2.470703,-2.4707 a 0.90008998,0.90008998 0 1 0 -1.005859,-1.49219 c -1.166535,0.78684 -2.170195,1.7905 -2.957032,2.95703 a 0.90008998,0.90008998 0 0 0 -0.162109,0.50782 z m 0.002,11.26953 a 0.90008998,0.90008998 0 0 0 0.160156,0.48047 c 0.786837,1.16653 1.790497,2.17019 2.957032,2.95703 A 0.90008998,0.90008998 0 1 0 99.877,156.09375 c -0.974965,-0.65762 -1.813081,-1.49574 -2.470703,-2.4707 a 0.90008998,0.90008998 0 0 0 -1.652344,0.52539 z m 13.332037,6.42968 a 0.90008998,0.90008998 0 0 0 1.25586,0.81836 c 3.42027,-1.41672 6.13796,-4.13441 7.55468,-7.55468 a 0.90008998,0.90008998 0 1 0 -1.6621,-0.6875 c -1.2343,2.97986 -3.60022,5.34578 -6.58008,6.58008 a 0.90008998,0.90008998 0 0 0 -0.56836,0.84374 z m 0,-24.1289 a 0.90008998,0.90008998 0 0 0 0.56836,0.8164 c 2.97986,1.2343 5.34578,3.60022 6.58008,6.58008 a 0.90008998,0.90008998 0 1 0 1.6621,-0.6875 c -1.41672,-3.42027 -4.13441,-6.13796 -7.55468,-7.55468 a 0.90008998,0.90008998 0 0 0 -1.25586,0.8457 z m 0.6289,20.40625 a 0.90008998,0.90008998 0 0 0 1.41407,0.73047 c 1.16653,-0.78684 2.17019,-1.7905 2.95703,-2.95703 a 0.90008998,0.90008998 0 1 0 -1.49219,-1.00586 c -0.65762,0.97496 -1.49574,1.81308 -2.4707,2.4707 a 0.90008998,0.90008998 0 0 0 -0.40821,0.76172 z m 0,-16.68359 a 0.90008998,0.90008998 0 0 0 0.40821,0.73437 c 0.97496,0.65762 1.81308,1.49574 2.4707,2.4707 a 0.90008998,0.90008998 0 1 0 1.49219,-1.00586 c -0.78684,-1.16653 -1.7905,-2.17019 -2.95703,-2.95703 a 0.90008998,0.90008998 0 0 0 -1.41407,0.75782 z"
       id="path817-3-5-1-0-6-2-7-28-1"
       inkscape:connector-curvature="0" />
    <circle
       style="display:inline;opacity:1;vector-effect:none;fill:none;fill-opacity:0.15294118;fill-rule:nonzero;stroke:#000000;stroke-width:0.12;stroke-linecap:butt;stroke-linejoin:miter;stroke-miterlimit:4;stroke-dasharray:none;stroke-dashoffset:0;stroke-opacity:1"
       id="path817-3-5-92-5"
       cx="97"
       cy="148.5"
       r="3.5799999" />
    <circle
       style="display:inline;opacity:1;vector-effect:none;fill:none;fill-opacity:0.15294118;fill-rule:nonzero;stroke:#000000;stroke-width:0.12;stroke-linecap:butt;stroke-linejoin:miter;stroke-miterlimit:4;stroke-dasharray:none;stroke-dashoffset:0;stroke-opacity:1"
       id="path817-3-5-92-3-6"
       cx="113"
       cy="148.5"
       r="3.5799999" />
    <circle
       style="display:inline;opacity:1;vector-effect:none;fill:none;fill-opacity:0.15294118;fill-rule:nonzero;stroke:#000000;stroke-width:0.12;stroke-linecap:butt;stroke-linejoin:miter;stroke-miterlimit:4;stroke-dasharray:none;stroke-dashoffset:0;stroke-opacity:1"
       id="path817-3-5-1-75-5"
       cx="105"
       cy="140.5"
       r="2.03" />
    <circle
       style="display:inline;opacity:1;vector-effect:none;fill:none;fill-opacity:0.15294118;fill-rule:nonzero;stroke:#000000;stroke-width:0.12;stroke-linecap:butt;stroke-linejoin:miter;stroke-miterlimit:4;stroke-dasharray:none;stroke-dashoffset:0;stroke-opacity:1"
       id="path817-3-5-1-75-9-7"
       cx="105"
       cy="156.50002"
       r="2.03" />
  </g>
  <g
     inkscape:groupmode="layer"
     id="layer4"
     inkscape:label="Layer 2"
     style="display:none">
    <path
       inkscape:connector-curvature="0"
       d=""
       style="opacity:1;vector-effect:none;fill:none;fill-opacity:0.15294118;fill-rule:nonzero;stroke:#ff0000;stroke-width:0.12;stroke-linecap:butt;stroke-linejoin:miter;stroke-miterlimit:4;stroke-dasharray:none;stroke-dashoffset:0;stroke-opacity:1"
       id="path817-3"
       r="16"
       cy="148.5"
       cx="105" />
    <circle
       style="opacity:1;vector-effect:none;fill:none;fill-opacity:0.15294118;fill-rule:nonzero;stroke:#000000;stroke-width:0.12;stroke-linecap:butt;stroke-linejoin:miter;stroke-miterlimit:4;stroke-dasharray:none;stroke-dashoffset:0;stroke-opacity:1"
       id="path817-3-5-92"
       cx="97"
       cy="148.5"
       r="3.5799999" />
    <circle
       style="opacity:1;vector-effect:none;fill:none;fill-opacity:0.15294118;fill-rule:nonzero;stroke:#000000;stroke-width:0.12;stroke-linecap:butt;stroke-linejoin:miter;stroke-miterlimit:4;stroke-dasharray:none;stroke-dashoffset:0;stroke-opacity:1"
       id="path817-3-5-92-3"
       cx="113"
       cy="148.5"
       r="3.5799999" />
    <circle
       style="opacity:1;vector-effect:none;fill:none;fill-opacity:0.15294118;fill-rule:nonzero;stroke:#000000;stroke-width:0.12;stroke-linecap:butt;stroke-linejoin:miter;stroke-miterlimit:4;stroke-dasharray:none;stroke-dashoffset:0;stroke-opacity:1"
       id="path817-3-5-1-75"
       cx="105"
       cy="140.5"
       r="2.03" />
    <circle
       style="opacity:1;vector-effect:none;fill:none;fill-opacity:0.15294118;fill-rule:nonzero;stroke:#000000;stroke-width:0.12;stroke-linecap:butt;stroke-linejoin:miter;stroke-miterlimit:4;stroke-dasharray:none;stroke-dashoffset:0;stroke-opacity:1"
       id="path817-3-5-1-75-9"
       cx="105"
       cy="156.50002"
       r="2.03" />
    <g
       id="g1512"
       style="stroke-width:1.79999995;stroke-miterlimit:4;stroke-dasharray:none">
      <path
         sodipodi:open="true"
         d="m 156.84012,-99.37452 a 10.059999,10.059999 0 0 1 -2.71464,2.714638"
         sodipodi:end="0.97738438"
         sodipodi:start="0.59341195"
         sodipodi:ry="10.059999"
         sodipodi:rx="10.059999"
         sodipodi:cy="-105"
         sodipodi:cx="148.5"
         sodipodi:type="arc"
         transform="rotate(90)"
         id="path817-3-5-1-0-6-2-7"
         style="opacity:1;vector-effect:none;fill:none;fill-opacity:0.15294118;fill-rule:nonzero;stroke:#000000;stroke-width:1.79999995;stroke-linecap:round;stroke-linejoin:miter;stroke-miterlimit:4;stroke-dasharray:none;stroke-dashoffset:0;stroke-opacity:1" />
      <path
         sodipodi:open="true"
         d="m -136.43413,109.99785 a 13.06,13.06 0 0 1 -7.06802,7.06802"
         sodipodi:end="1.1780972"
         sodipodi:start="0.39269908"
         sodipodi:ry="13.06"
         sodipodi:rx="13.06"
         sodipodi:cy="105"
         sodipodi:cx="-148.5"
         sodipodi:type="arc"
         transform="rotate(-90)"
         id="path817-3-5-1-0-6"
         style="opacity:1;vector-effect:none;fill:none;fill-opacity:0.15294118;fill-rule:nonzero;stroke:#ff0000;stroke-width:1.79999995;stroke-linecap:round;stroke-linejoin:miter;stroke-miterlimit:4;stroke-dasharray:none;stroke-dashoffset:0;stroke-opacity:1" />
      <path
         sodipodi:open="true"
         d="m 113.34012,154.12548 a 10.059999,10.059999 0 0 1 -2.71464,2.71464"
         sodipodi:end="0.97738438"
         sodipodi:start="0.59341195"
         sodipodi:ry="10.059999"
         sodipodi:rx="10.059999"
         sodipodi:cy="148.5"
         sodipodi:cx="105"
         sodipodi:type="arc"
         id="path817-3-5-1-0-6-2"
         style="opacity:1;vector-effect:none;fill:none;fill-opacity:0.15294118;fill-rule:nonzero;stroke:#ff0000;stroke-width:1.79999995;stroke-linecap:round;stroke-linejoin:miter;stroke-miterlimit:4;stroke-dasharray:none;stroke-dashoffset:0;stroke-opacity:1" />
      <path
         sodipodi:open="true"
         d="m -92.934132,-143.50215 a 13.060001,13.060001 0 0 1 -7.068018,7.06802"
         sodipodi:end="1.1780972"
         sodipodi:start="0.39269908"
         sodipodi:ry="13.060001"
         sodipodi:rx="13.060001"
         sodipodi:cy="-148.5"
         sodipodi:cx="-105"
         sodipodi:type="arc"
         transform="scale(-1)"
         id="path817-3-5-1-0-6-6"
         style="opacity:1;vector-effect:none;fill:none;fill-opacity:0.15294118;fill-rule:nonzero;stroke:#ff0000;stroke-width:1.79999995;stroke-linecap:round;stroke-linejoin:miter;stroke-miterlimit:4;stroke-dasharray:none;stroke-dashoffset:0;stroke-opacity:1" />
      <path
         sodipodi:open="true"
         d="m 160.56587,-100.00215 a 13.060001,13.060001 0 0 1 -7.06802,7.068018"
         sodipodi:end="1.1780972"
         sodipodi:start="0.39269908"
         sodipodi:ry="13.060001"
         sodipodi:rx="13.060001"
         sodipodi:cy="-105"
         sodipodi:cx="148.5"
         sodipodi:type="arc"
         transform="rotate(90)"
         id="path817-3-5-1-0-6-1"
         style="opacity:1;vector-effect:none;fill:none;fill-opacity:0.15294118;fill-rule:nonzero;stroke:#ff0000;stroke-width:1.79999995;stroke-linecap:round;stroke-linejoin:miter;stroke-miterlimit:4;stroke-dasharray:none;stroke-dashoffset:0;stroke-opacity:1" />
      <path
         sodipodi:open="true"
         d="m 117.06587,153.49785 a 13.060001,13.060001 0 0 1 -7.06802,7.06802"
         sodipodi:end="1.1780972"
         sodipodi:start="0.39269908"
         sodipodi:ry="13.060001"
         sodipodi:rx="13.060001"
         sodipodi:cy="148.5"
         sodipodi:cx="105"
         sodipodi:type="arc"
         id="path817-3-5-1-0-6-8"
         style="opacity:1;vector-effect:none;fill:none;fill-opacity:0.15294118;fill-rule:nonzero;stroke:#ff0000;stroke-width:1.79999995;stroke-linecap:round;stroke-linejoin:miter;stroke-miterlimit:4;stroke-dasharray:none;stroke-dashoffset:0;stroke-opacity:1" />
      <path
         sodipodi:open="true"
         d="m -96.659882,-142.87452 a 10.059999,10.059999 0 0 1 -2.714638,2.71464"
         sodipodi:end="0.97738438"
         sodipodi:start="0.59341195"
         sodipodi:ry="10.059999"
         sodipodi:rx="10.059999"
         sodipodi:cy="-148.5"
         sodipodi:cx="-105"
         sodipodi:type="arc"
         transform="scale(-1)"
         id="path817-3-5-1-0-6-2-7-2"
         style="opacity:1;vector-effect:none;fill:none;fill-opacity:0.15294118;fill-rule:nonzero;stroke:#000000;stroke-width:1.79999995;stroke-linecap:round;stroke-linejoin:miter;stroke-miterlimit:4;stroke-dasharray:none;stroke-dashoffset:0;stroke-opacity:1" />
      <path
         sodipodi:open="true"
         d="m -140.15988,110.62548 a 10.059999,10.059999 0 0 1 -2.71464,2.71464"
         sodipodi:end="0.97738438"
         sodipodi:start="0.59341195"
         sodipodi:ry="10.059999"
         sodipodi:rx="10.059999"
         sodipodi:cy="105"
         sodipodi:cx="-148.5"
         sodipodi:type="arc"
         transform="rotate(-90)"
         id="path817-3-5-1-0-6-2-7-28"
         style="opacity:1;vector-effect:none;fill:none;fill-opacity:0.15294118;fill-rule:nonzero;stroke:#000000;stroke-width:1.79999995;stroke-linecap:round;stroke-linejoin:miter;stroke-miterlimit:4;stroke-dasharray:none;stroke-dashoffset:0;stroke-opacity:1" />
    </g>
  </g>
  <g
     inkscape:label="Layer 1"
     inkscape:groupmode="layer"
     id="layer1"
     style="display:none">
    <path
       style="display:inline;opacity:1;vector-effect:none;fill:none;fill-opacity:1;fill-rule:nonzero;stroke:#000000;stroke-width:0.12;stroke-linecap:butt;stroke-linejoin:miter;stroke-miterlimit:4;stroke-dasharray:none;stroke-dashoffset:0;stroke-opacity:1"
       d="m 104.99979,98.499929 c -27.614275,-2.4e-5 -50.000073,22.385781 -50.000045,50.000051 -2.7e-5,27.61427 22.385771,50.00007 50.000045,50.00005 27.61428,3e-5 50.00008,-22.38577 50.00005,-50.00005 3e-5,-27.61428 -22.38577,-50.000078 -50.00005,-50.000051 z"
       id="path817-36"
       inkscape:connector-curvature="0"
       sodipodi:nodetypes="ccccc" />
  </g>
</svg>
